<?xml version="1.0" ?><svg id="Layer_1" style="enable-background:new 0 0 64 64;" version="1.1" viewBox="0 0 64 64" xml:space="preserve" xmlns="http://www.w3.org/2000/svg" xmlns:xlink="http://www.w3.org/1999/xlink"><style type="text/css">
	.st0{fill:url(#SVGID_1_);}
	.st1{fill:url(#SVGID_2_);}
	.st2{fill:url(#SVGID_3_);}
	.st3{fill:url(#SVGID_4_);}
	.st4{fill:url(#SVGID_5_);}
	.st5{fill:#FFFFFF;}
	.st6{fill:url(#SVGID_6_);}
	.st7{fill:url(#SVGID_7_);}
	.st8{fill:url(#SVGID_8_);}
	.st9{fill:url(#SVGID_9_);}
	.st10{fill:url(#SVGID_10_);}
	.st11{fill:#FFBF0B;}
	.st12{fill:#1A1A54;}
	.st13{fill:#DC2863;}
	.st14{fill:none;stroke:#1A1A54;stroke-width:3;stroke-linecap:round;stroke-linejoin:round;stroke-miterlimit:10;}
	.st15{fill:#0B85FF;}
	.st16{opacity:0.5;fill:#FFFFFF;}
	.st17{fill:#00AF64;}
	.st18{fill:#00D17C;}
	.st19{fill:none;stroke:#00D17C;stroke-width:3;stroke-linecap:round;stroke-linejoin:round;stroke-miterlimit:10;}
	.st20{fill:#8C5C3B;}
	.st21{opacity:0.1;fill:#1A1A54;}
	.st22{opacity:0.2;fill:#1A1A54;}
	.st23{fill:none;stroke:#FFFFFF;stroke-width:2;stroke-linecap:round;stroke-miterlimit:10;}
	.st24{fill:#E86942;}
	.st25{fill:#6642AD;}
	.st26{fill:url(#SVGID_11_);}
	.st27{fill:url(#SVGID_12_);}
	.st28{fill:url(#SVGID_13_);}
	.st29{opacity:0.2;}
	.st30{fill:none;stroke:#1A1A54;stroke-width:2;stroke-miterlimit:10;}
	.st31{fill:#E8E8EE;}
	.st32{fill:#D1D1DC;}
	.st33{fill:none;stroke:#D1D1DC;stroke-width:1.8172;stroke-linecap:round;stroke-miterlimit:10;}
	.st34{opacity:0.5;fill:#E8E8EE;}
	.st35{fill:none;stroke:#E8E8EE;stroke-width:7.1126;stroke-linecap:round;stroke-linejoin:round;stroke-miterlimit:10;}
	.st36{fill:none;stroke:#D1D1DC;stroke-width:2.3709;stroke-linecap:round;stroke-miterlimit:10;}
	.st37{fill:#F2AD00;}
	.st38{fill:none;stroke:#E8E8EE;stroke-width:5;stroke-linecap:round;stroke-linejoin:round;stroke-miterlimit:10;}
	.st39{fill:none;stroke:#FFFFFF;stroke-width:4;stroke-linecap:square;stroke-miterlimit:10;}
</style><path class="st11" d="M10.4,46.6c-0.7,5.7-1.8,17.3-1.8,17.3h26.9c0,0,1.2-5.2,4.2-10.5c3-5.3,4.7-9.4,4.5-12.6  c-0.2-3.2-11.1-5.5-11.1-5.5l-15.4,3.7C17.7,39.1,11,41.3,10.4,46.6z"/><g><path class="st37" d="M24.6,52.7c0.1-0.1,0.3-0.4,0.5-0.7c0.2-0.3,0.3-0.6,0.4-0.9c0.2-0.6,0.3-1.3,0.3-1.9c0-0.7-0.1-1.3-0.2-2   l-0.2-1l-0.3-1l0,0c-0.4-1.4,0.4-2.9,1.8-3.3c1.4-0.4,2.9,0.4,3.3,1.8c0.1,0.3,0.1,0.7,0.1,1L30,46.1l-0.2,1.3   c-0.2,0.9-0.4,1.8-0.8,2.6c-0.4,0.8-0.8,1.7-1.4,2.4c-0.3,0.4-0.6,0.7-1,1c-0.4,0.3-0.7,0.5-1.3,0.8c-0.4,0.2-0.9,0-1-0.4   c-0.1-0.3-0.1-0.5,0.1-0.8L24.6,52.7z"/></g><g><path class="st11" d="M52.5,17.9c-0.6,0.7-1.2,1.3-1.8,1.9c-0.6,0.6-1.2,1.2-1.9,1.7c-1.3,1.1-2.8,2.2-4.6,3.1L44,24.7   c-1.8,0.9-4,0.1-4.9-1.7s-0.1-4,1.7-4.9c0.4-0.2,0.8-0.3,1.2-0.3c1.2-0.1,2.5-0.5,3.9-1.1c0.7-0.3,1.3-0.6,2-0.9   c0.7-0.3,1.4-0.7,1.9-1l0.1-0.1c1-0.6,2.2-0.2,2.8,0.8C53.2,16.3,53,17.3,52.5,17.9z"/></g><g><path class="st37" d="M39.5,45.8l-10.7,1.1c-1.1,0.1-2-0.7-2.1-1.7c-0.1-1.1,0.7-2,1.7-2.1c0.1,0,0.3,0,0.4,0l10.7,1.1   c0.5,0,0.8,0.5,0.7,0.9C40.2,45.5,39.9,45.8,39.5,45.8z"/></g><g><path class="st37" d="M46.8,17.5l0.6,4.1c0.1,0.8-0.4,1.6-1.2,1.7c-0.8,0.1-1.6-0.4-1.7-1.2c0-0.1,0-0.3,0-0.4l0.6-4.1   c0.1-0.5,0.5-0.8,1-0.7C46.5,16.9,46.8,17.2,46.8,17.5z"/></g><path class="st12" d="M43.2,0H21.8C20.2,0,19,1.2,19,2.8V5l1,16.2L19,40v2.2c0,1.5,1.2,2.8,2.8,2.8h21.5c1.5,0,2.8-1.2,2.8-2.8V40  l-1-18.8L46,5V2.8C46,1.2,44.8,0,43.2,0z"/><rect class="st17" height="35" width="27" x="19" y="5"/><path class="st11" d="M28.8,25.5c-0.7-0.9-1.9-1.1-2.9-0.7l-11.1,5.1c-0.7,0.3-1.3,1-1.5,1.9l-0.2,0.8l-2.7,13.3  c-0.1,0.5-0.1,1.1-0.1,1.7c0.1,0.7,0.3,1.3,0.6,1.9c1,3.8,4.3,6.5,8.1,6.5c4.7,0,8.5-4,8.5-9c0-3.6-2-6.7-4.8-8.1  c-1.6-0.8-2.8-2.3-3-4.2v0c0-0.2,0.1-0.4,0.2-0.4l8.1-5.3l0.2-0.1C29.3,28.1,29.6,26.6,28.8,25.5z"/><g><path class="st11" d="M50.4,32.9c0.1,0.2,0.1,0.3,0.1,0.3c0,0.1,0,0.2,0,0.2c0,0.2,0,0.3,0.1,0.4c0,0.3,0,0.5,0,0.8   c0,0.5-0.1,1-0.3,1.5c-0.3,1-0.8,1.8-1.4,2.4c-0.6,0.7-1.2,1.1-1.9,1.6c-0.3,0.2-0.7,0.4-1,0.5l-1,0.4c-1,0.4-2.2,0-2.7-1.1   c-0.4-0.9-0.1-1.9,0.7-2.4l0.2-0.1l0.6-0.4l0.5-0.4c0.3-0.3,0.6-0.6,0.7-0.9c0.1-0.3,0.2-0.5,0.2-0.8c0-0.1,0-0.2-0.1-0.3   c0,0,0-0.1,0-0.1c0,0,0,0,0,0c0,0,0,0,0,0c0,0,0,0,0,0.1c-0.5-1.4,0.2-3,1.7-3.5C48.3,30.8,49.9,31.5,50.4,32.9z"/></g><g><path class="st37" d="M45.5,34.6c0.2-0.1,0.4-0.3,0.6-0.5c0.2-0.2,0.4-0.4,0.6-0.6c0.4-0.4,0.7-0.8,1-1.2c0.4-0.7,1.4-0.9,2-0.5   c0.7,0.4,0.9,1.4,0.5,2c-0.1,0.1-0.2,0.3-0.3,0.4l-0.1,0c-0.6,0.4-1.1,0.8-1.8,1.1c-0.3,0.2-0.6,0.3-0.9,0.4   c-0.3,0.1-0.6,0.2-1,0.3c-0.4,0.1-0.9-0.2-1-0.6c-0.1-0.3,0.1-0.7,0.3-0.9L45.5,34.6z"/></g><g><path class="st11" d="M50.4,27.4c0.1,0.2,0.1,0.3,0.1,0.3c0,0.1,0,0.2,0,0.2c0,0.2,0,0.3,0.1,0.4c0,0.3,0,0.5,0,0.8   c0,0.5-0.1,1-0.3,1.5c-0.3,1-0.8,1.8-1.4,2.4c-0.6,0.7-1.2,1.1-1.9,1.6c-0.3,0.2-0.7,0.4-1,0.5l-1,0.4c-1,0.4-2.2,0-2.7-1.1   c-0.4-0.9-0.1-1.9,0.7-2.4l0.2-0.1l0.6-0.4l0.5-0.4c0.3-0.3,0.6-0.6,0.7-0.9c0.1-0.3,0.2-0.5,0.2-0.8c0-0.1,0-0.2-0.1-0.3   c0,0,0-0.1,0-0.1c0,0,0,0,0,0c0,0,0,0,0,0c0,0,0,0,0,0.1c-0.5-1.4,0.2-3,1.7-3.5C48.3,25.2,49.9,25.9,50.4,27.4z"/></g><path class="st17" d="M44.9,30.5c1.1-1.1,1.1-2,1.1-2V25h-2.1L44.9,30.5z"/></svg>